<?xml version="1.0" encoding="utf-8"?>
<!-- Generator: Adobe Illustrator 24.2.3, SVG Export Plug-In . SVG Version: 6.00 Build 0)  -->
<svg version="1.1" id="Layer_1" xmlns="http://www.w3.org/2000/svg" xmlns:xlink="http://www.w3.org/1999/xlink" x="0px" y="0px"
	 viewBox="0 0 16 16" style="enable-background:new 0 0 16 16;" xml:space="preserve">
<style type="text/css">
	.st0{display:none;}
	.st1{fill:#FFFFFF;}
</style>
<g id="grid" class="st0">
</g>
<g id="Layer_2_1_">
	<g>
		<path class="st1" d="M8,9C6,9,4,7,4,5s2-4,4-4s4,2,4,4S10,9,8,9z M8,3C7,3,6,4,6,5s1,2,2,2s2-1,2-2S9,3,8,3z"/>
	</g>
	<g>
		<path class="st1" d="M14,15H2c-0.5,0-1-0.4-1-1v-1.2c0-2,0.9-3.8,2.3-5.1c0.4-0.4,1-0.3,1.4,0.1c0.4,0.4,0.3,1-0.1,1.4
			c-1,0.9-1.6,2.2-1.6,3.6V13h10v-0.2c0-1.4-0.6-2.7-1.6-3.6c-0.4-0.4-0.5-1-0.1-1.4c0.4-0.4,1-0.5,1.4-0.1c1.5,1.3,2.3,3.2,2.3,5.1
			V14C15,14.6,14.6,15,14,15z"/>
	</g>
</g>
</svg>
