<?xml version="1.0" encoding="utf-8"?>
<!-- Generator: Adobe Illustrator 24.2.3, SVG Export Plug-In . SVG Version: 6.00 Build 0)  -->
<svg version="1.1" id="Layer_1" xmlns="http://www.w3.org/2000/svg" xmlns:xlink="http://www.w3.org/1999/xlink" x="0px" y="0px"
	 viewBox="0 0 640 1024" style="enable-background:new 0 0 640 1024;" xml:space="preserve">
<style type="text/css">
	.st0{fill:#FFFFFF;}
</style>
<path class="st0" d="M512,192c-70.6,0-128,57.3-128,128c0,47.2,25.9,88.1,64,110.3V448c0,0,0,128-128,128
	c-53.1,0-94.7,11.4-128,28.8V302.3c38.2-22.2,64-63.1,64-110.3c0-70.7-57.3-128-128-128S0,121.3,0,192c0,47.2,25.8,88.1,64,110.3
	v419.5C25.8,743.9,0,784.8,0,832c0,70.6,57.3,128,128,128s128-57.4,128-128c0-33.5-13.2-63.8-34.2-86.6
	c18.6-22.9,48.9-41.4,98.2-41.4c254,0,256-256,256-256v-17.7c38.1-22.2,64-63.1,64-110.3C640,249.3,582.6,192,512,192z M128,128
	c35.4,0,64,28.6,64,64s-28.6,64-64,64s-64-28.6-64-64S92.6,128,128,128z M128,896c-35.4,0-64-28.6-64-64c0-35.3,28.6-64,64-64
	s64,28.7,64,64C192,867.4,163.4,896,128,896z M512,384c-35.4,0-64-28.6-64-64s28.6-64,64-64s64,28.6,64,64S547.4,384,512,384z"/>
</svg>
